<?xml version="1.0" encoding="UTF-8"?>
<svg width="1920px" height="1080px" viewBox="0 0 1920 1080" version="1.1" xmlns="http://www.w3.org/2000/svg" xmlns:xlink="http://www.w3.org/1999/xlink">
    <title>画板</title>
    <g id="画板" stroke="none" stroke-width="1" fill="none" fill-rule="evenodd">
        <g id="编组-30" transform="translate(500, 278.0578)">
            <path d="M841.27841,0 L815.583659,66.3872166 L767.853847,189.70329 L837.791154,196.408365 L875.410114,200.014526 L843.723399,220.609251 L796.735823,251.147387 L881.013694,303.756919 L920,328.093702 L874.041234,328.147664 L735.250487,328.310048 L740.232565,355.435913 L714.273997,360.203813 L706.433517,317.516757 L703.575234,301.954991 L719.397307,301.936414 L828.050884,301.808374 L765.187967,262.566966 L747.614937,251.59719 L764.984439,240.307913 L797.652972,219.073532 L748.003792,214.315122 L730.671467,212.653641 L736.956266,196.415682 L765.2756,123.24621 L712.091191,181.978117 L698.301449,197.205842 L690.186332,178.332965 L671.379902,134.600065 L666.361233,185.410638 L663.983589,209.47467 L645.032299,194.455367 L620.00136,174.616504 L636.797654,218.988752 L645.545055,242.09733 L621.474938,236.515854 L561.364594,222.577223 L567.326477,196.866602 L603.365646,205.222259 L578.397297,139.26045 L561.476284,94.55911 L598.93555,124.246379 L642.473183,158.75113 L650.150254,81.0601243 L655.183829,30.1155285 L675.405888,77.1448494 L706.315726,149.033629 L793.495216,52.7659845 L841.27841,0 Z M677.947125,252.147703 L668.036176,284.37329 L651.228095,303.040556 L650.009025,309.291015 L620.777579,341.755825 L613.958001,344.433188 L603.406938,334.932968 L592.855875,325.432748 L594.805731,318.370668 L624.037177,285.905859 L630.125968,284.040116 L646.93405,265.37285 L677.947125,252.147703 Z" id="路径-2备份-20" fill="#373ED8" fill-rule="nonzero"></path>
            <path d="M441.122667,143.871473 L441.122667,192.562992 C441.122667,204.957912 444.412812,217.313456 451.544376,227.450777 C452.397539,228.65833 453.290078,229.844008 454.221994,230.985933 L454.221994,245.79596 C446.346647,238.65127 440.006993,229.870259 435.675553,220.01295 C431.339737,229.870259 424.995707,238.65127 417.124736,245.79596 L417.124736,230.985933 L417.317244,230.754048 C426.019503,219.951697 430.228438,206.204842 430.228438,192.331106 L430.228438,143.871473 L441.122667,143.871473 Z M426.493773,158.926949 L426.493773,202.123225 L415.599544,202.123225 L415.599544,158.926949 L426.493773,158.926949 Z M455.435672,158.926949 L455.435672,202.123225 L444.541443,202.123225 L444.541443,158.926949 L455.435672,158.926949 Z M475.316548,177.123812 L487.028938,177.123812 L487.028938,194.56333 C487.028938,196.571543 485.405742,198.199115 483.397528,198.199115 L475.316548,198.199115 L475.316548,177.123812 Z M499.445735,208.852709 L492.86107,208.852709 L492.86107,219.746938 L504.507832,219.746938 C510.523722,219.746938 515.402062,214.868598 515.402062,208.852709 L515.402062,147.985029 L511.993787,147.985029 L504.507832,147.985029 L475.535307,147.985029 L475.535307,144.047356 L464.737332,144.047356 L464.737332,153.449645 C464.509822,156.372274 462.164719,158.68675 459.198338,158.756754 L459.198338,169.677234 C459.526477,169.69911 459.837116,169.777864 460.169631,169.777864 C461.648446,169.777864 463.057258,169.497851 464.422318,169.104084 L464.422318,234.539464 L464.422318,239.579686 L464.422318,245.389942 L499.126346,245.389942 C508.099866,245.389942 515.402062,238.087746 515.402062,229.114226 L515.402062,224.682155 L504.551584,224.682155 L504.551584,229.114226 C504.551584,232.106857 502.118977,234.539464 499.126346,234.539464 L475.316548,234.539464 L475.316548,209.093344 L487.028938,209.093344 C493.049203,209.093344 497.923168,204.215005 497.923168,198.199115 L497.923168,166.229582 L469.908809,166.229582 C472.232037,164.330749 473.982114,161.801888 474.865903,158.879259 L504.507832,158.879259 L504.507832,203.790611 C504.507832,206.586359 502.241483,208.852709 499.445735,208.852709 L499.445735,208.852709 Z M262.73294,147.778958 L262.73294,228.855652 C262.73294,237.67604 255.710756,244.855731 246.95162,245.113867 L246.474724,245.118243 L235.672374,245.118243 L235.672374,234.276515 L245.188418,234.276515 C248.010417,234.276515 250.333644,230.841989 250.587405,226.453671 L250.609281,225.963649 L250.609281,147.778958 L262.73294,147.778958 Z M238.285676,165.971884 C237.961912,194.257504 227.216439,217.940421 209.164395,234.579279 L209.164395,219.611745 C220.251133,206.341786 227.076433,186.439035 227.041431,165.971884 Z M286.700683,165.971884 C286.665681,186.439035 293.490981,206.341786 304.577719,219.611745 L304.577719,234.837415 C286.525675,218.198558 275.522065,194.257504 275.198301,165.971884 L286.700683,165.971884 Z M158.136523,209.355856 L158.136523,216.583674 L196.992609,216.583674 L196.992609,227.429776 L158.136523,227.429776 L158.136523,234.657595 L202.417848,234.657595 L202.417848,245.503697 L103.013472,245.503697 L103.013472,234.657595 L147.290421,234.657595 L147.290421,227.429776 L108.438711,227.429776 L108.438711,216.583674 L147.290421,216.583674 L147.290421,209.355856 L158.136523,209.355856 Z M150.005665,147.908026 L150.005665,160.556708 C150.005665,169.442724 142.882852,176.661792 134.040588,176.823674 L121.48816,176.823674 L121.48816,165.981947 L133.738699,165.981947 C136.665703,165.981947 139.050183,163.663095 139.159563,160.762342 L139.163938,160.556708 L139.163938,158.754128 L117.598614,158.754128 L117.51986,182.244537 L150.005665,182.244537 L150.005665,194.897594 C150.005665,203.722358 142.983481,210.902049 134.219971,211.15581 L133.738699,211.16456 L117.471733,211.16456 L117.471733,190.321143 C117.029839,197.824598 110.878318,203.783611 103.300485,203.932367 L103.016097,203.936742 L103.016097,193.09064 C104.963058,193.09064 106.551253,191.563698 106.656257,189.638613 L106.660632,189.45923 L106.787513,147.908026 L150.005665,147.908026 Z M182.538285,144.292804 L182.538285,151.524998 L200.60783,151.524998 L200.60783,162.366725 L196.993921,162.366725 L196.993921,166.278147 C196.95892,168.076351 196.635155,169.800177 196.070756,171.405873 L202.41916,171.401498 L202.41916,182.2476 L182.538285,182.2476 L182.538285,189.475418 L200.60783,189.475418 L200.60783,200.321521 L182.538285,200.321521 L182.538285,211.163248 L171.692183,211.163248 L171.692183,200.321521 L153.618262,200.321521 L153.618262,189.475418 L171.692183,189.475418 L171.692183,182.2476 L151.811307,182.2476 L151.811307,171.401498 L158.159712,171.405873 C157.590937,169.800177 157.267173,168.076351 157.236546,166.278147 L157.236546,162.366725 L153.618262,162.366725 L153.618262,151.524998 L171.692183,151.524998 L171.692183,144.292804 L182.538285,144.292804 Z M139.163938,193.09064 L128.317836,193.09064 L128.317836,200.318458 L133.738699,200.318458 C136.560699,200.318458 138.879551,198.165863 139.137687,195.409492 L139.159563,195.098853 L139.163938,194.897594 L139.163938,193.09064 Z M186.152194,162.366725 L168.078273,162.366725 L168.078273,165.980634 C168.078273,168.907638 170.39275,171.292118 173.297878,171.401498 L180.932589,171.401498 C183.728337,171.296493 185.985937,169.07827 186.139068,166.291273 L186.152194,165.980634 L186.152194,162.366725 Z M36.143466,191.281498 L59.6382502,191.281498 L59.6382502,180.435395 L36.143466,180.435395 L36.143466,191.281498 Z M70.4843526,180.43977 L81.3260798,180.43977 L81.3260798,229.236293 L81.3217046,229.441927 L81.3042039,229.748191 C81.0460675,232.500187 78.7272154,234.657157 75.9052162,234.657157 L70.4843526,234.657157 L70.4843526,180.43977 Z M36.143466,212.969327 L59.6382502,212.969327 L59.6382502,202.123225 L36.143466,202.123225 L36.143466,212.969327 Z M36.143466,234.657157 L59.6382502,234.657157 L59.6382502,223.811055 L36.143466,223.811055 L36.143466,234.657157 Z M14.4600115,234.657157 L25.3061139,234.657157 L25.3061139,180.43977 L14.4600115,180.43977 L14.4600115,234.657157 Z M42.4612441,164.483443 C42.3037371,167.270441 40.0505129,169.488663 37.2547649,169.593668 L37.0491308,169.593668 L3.61828427,169.593668 L3.61828427,245.503259 L75.9052162,245.503259 L76.3864874,245.494509 C85.1456229,245.240748 92.1721822,238.056682 92.1721822,229.236293 L92.1721822,169.593668 L52.388556,169.598043 C52.9573311,167.992348 53.2810953,166.268522 53.3117217,164.470318 L53.3160969,164.172804 L53.3160969,158.751941 L95.7860913,158.751941 L95.7860913,147.910214 L0,147.910214 L0,158.751941 L42.4699944,158.751941 L42.4699944,164.172804 L42.4612441,164.483443 Z M408.188843,147.983279 L408.188843,151.120292 L408.232595,151.120292 L408.232595,232.06573 C408.232595,239.512308 402.199204,245.545699 394.757001,245.545699 L385.682852,245.545699 L385.682852,234.651469 L393.698205,234.651469 C395.706418,234.651469 397.338365,233.023898 397.338365,231.015684 L397.338365,158.877509 L359.409821,158.877509 L359.409821,244.906921 L348.511216,244.906921 L348.511216,147.983279 L408.188843,147.983279 Z M373.856269,162.233282 C373.843143,172.147468 375.413837,181.899772 378.183334,190.943295 C380.952831,181.899772 382.523525,172.147468 382.506025,162.233282 L393.829023,162.233282 C393.64089,178.504623 390.324494,193.152768 384.277978,205.976457 C386.736836,210.671039 389.541334,215.01998 392.717724,218.817647 L392.717724,234.065193 C387.139354,228.924342 382.29164,223.175339 378.183334,216.888187 C374.075029,223.175339 369.227315,228.924342 363.648945,234.065193 L363.648945,218.817647 C366.820959,215.01998 369.629833,210.671039 372.084316,205.976457 C366.0378,193.152768 362.725779,178.504623 362.542021,162.233282 Z M328.136819,143.869723 L317.338844,143.869723 L317.338844,153.267637 C317.111334,156.194641 314.76623,158.509118 311.804225,158.579121 L311.804225,169.499601 C312.132364,169.521477 312.443003,169.595856 312.775518,169.595856 C317.299467,169.595856 321.377146,167.570141 324.216646,164.420003 L344.845679,164.420003 L344.845679,153.530148 L328.136819,153.530148 L328.136819,143.869723 Z M333.422052,185.741629 L342.929345,185.741629 L342.929345,174.847399 L313.068656,174.847399 L313.068656,185.741629 L322.575949,185.741629 L322.575949,198.941585 L311.804225,198.941585 L311.804225,209.835814 L322.575949,209.835814 L322.575949,228.640392 C322.575949,237.46078 329.602508,244.644847 338.366019,244.898608 L338.842915,244.902983 L344.276904,244.902983 L344.276904,234.061256 L338.842915,234.061256 C336.025291,234.061256 333.702064,230.62673 333.448303,226.242787 L333.426427,225.752765 L333.422052,225.424626 L333.422052,209.835814 L344.276904,209.835814 L344.276904,198.941585 L333.422052,198.941585 L333.422052,185.741629 Z M371.887549,267.59175 C382.015947,267.59175 390.632221,270.08466 397.782427,275.060817 L398.521301,275.585639 C404.878527,280.193747 410.03056,286.353125 413.982682,294.084368 L414.129971,294.379489 L393.81246,303.423973 L393.585976,302.966497 C391.416783,298.710592 388.49941,295.395263 384.839393,293.049098 C380.646589,290.361403 375.813966,289.019008 370.379844,289.019008 C364.409788,289.019008 359.047839,290.708022 354.342573,294.076565 C349.666076,297.424511 346.036892,302.113311 343.45953,308.109622 C340.904874,314.053107 339.631591,320.757336 339.631591,328.210408 C339.631591,335.859263 340.90282,342.734279 343.453513,348.824708 C346.02694,354.969422 349.650775,359.783568 354.322742,363.234453 C359.03093,366.712092 364.400497,368.457201 370.379844,368.457201 C375.5252,368.457201 380.189655,367.082131 384.33237,364.338254 L384.97427,363.899856 C388.369737,361.509663 391.317299,358.286594 393.817892,354.244313 L393.972467,353.987636 L414.430189,363.094803 L414.29406,363.365552 C410.075351,371.57181 404.368382,377.949925 397.161757,382.527718 C389.441893,387.431531 380.577349,389.88446 370.530614,389.88446 C359.879101,389.88446 350.434403,387.279865 342.159825,382.071748 C333.876732,376.858272 327.422571,369.600386 322.780998,360.268381 C318.124336,350.906039 315.792005,340.226417 315.792005,328.210408 C315.792005,316.401461 318.146692,305.90348 322.848536,296.695703 C327.534706,287.518619 334.107045,280.386414 342.585717,275.269974 C351.06564,270.152779 360.821944,267.59175 371.887549,267.59175 Z M231.83455,298.95201 C240.320033,298.95201 246.819489,301.650339 251.466134,307.047958 L251.874021,307.534955 C256.294568,312.960141 258.52985,320.637042 258.52985,330.622736 L258.52985,387.772075 L236.348044,387.772075 L236.348739,336.502784 C236.348739,331.506724 235.071043,327.479202 232.477239,324.490689 C229.839623,321.451696 226.21477,319.926957 221.732928,319.926957 C216.577345,319.926957 212.351571,321.578087 209.163414,324.878109 L208.78932,325.278881 C205.858095,328.529724 204.403247,332.851424 204.403247,338.16126 L204.402854,387.772075 L182.221352,387.772075 L182.221352,301.061817 L204.402854,301.061817 L204.403247,312.822894 L207.736896,312.822894 L208.218223,312.026853 C210.688315,307.941701 213.929348,304.747982 217.95826,302.425433 C221.971611,300.111854 226.587318,298.95201 231.83455,298.95201 Z M296.495594,301.061817 L296.495594,387.772075 L274.315742,387.772075 L274.315742,301.061817 L296.495594,301.061817 Z M165.057782,301.061817 L165.057782,387.772075 L142.87628,387.772075 L142.87628,301.061817 L165.057782,301.061817 Z M22.3931302,269.702217 L60.5008051,327.609518 L60.9895973,328.352253 L63.6725038,328.352253 L64.161296,327.609518 L102.267652,269.702217 L123.249931,269.702217 L123.249931,387.772075 L100.91832,387.772075 L100.919369,315.554613 L97.4880487,315.554613 L96.9975993,316.281831 L71.2528083,354.452809 L53.396427,354.452809 L27.5044967,316.871366 L27.0127942,316.157695 L23.591962,316.157695 L23.5907037,387.772075 L1.41085119,387.772075 L1.41085119,269.702217 L22.3931302,269.702217 Z M656.537977,319.436157 L656.537977,387.772075 L634.356475,387.772075 L634.356475,345.248319 L656.537977,319.436157 Z M470.183513,269.702217 C479.600674,269.702217 487.75443,271.33817 494.658292,274.595626 C501.507753,277.827414 506.738358,282.434185 510.386687,288.434726 C514.043073,294.44852 515.875894,301.514525 515.875894,309.665639 C515.875894,317.822044 514.090413,324.867456 510.530447,330.832805 C506.977869,336.785773 501.917748,341.366262 495.315957,344.594875 C488.669068,347.845543 480.799305,349.477971 471.691218,349.477971 L451.044587,349.477971 L451.043606,387.772075 L427.95815,387.772075 L427.95815,269.702217 Z M550.976659,269.702217 L587.13315,312.574028 L570.22526,331.774793 L555.801683,316.668143 L555.314333,316.157695 L552.05442,316.157695 L552.053815,387.772075 L529.872313,387.772075 L529.872313,269.702217 L550.976659,269.702217 Z M466.263481,290.375942 L451.044587,290.375942 L451.044587,328.804565 L466.263481,328.804565 C474.122914,328.804565 480.386303,327.159098 485.019057,323.819206 C489.773588,320.391521 492.187078,315.620667 492.187078,309.665639 C492.187078,303.714158 489.777057,298.922139 485.02921,295.444065 C480.394808,292.049096 474.12712,290.375942 466.263481,290.375942 Z M165.057782,264.626551 L165.057782,286.806404 L142.87628,286.806404 L142.87628,264.626551 L165.057782,264.626551 Z M296.319093,264.626551 L296.319093,286.806404 L274.137591,286.806404 L274.137591,264.626551 L296.319093,264.626551 Z" id="形状结合备份-2" fill="#000000"></path>
            <polygon id="路径备份-11" fill="#3D4AC6" fill-rule="nonzero" transform="translate(593.4963, 345.9152) rotate(42) translate(-593.4963, -345.9152)" points="606.350133 354.313926 604.691658 335.799776 603.586008 357.001464 601.927532 336.994238 600.821882 359.987617 599.163407 337.890084 597.504932 361.480694 595.293631 338.487314 593.635156 364.168232 591.423855 338.487314 589.212555 361.480694 587.55408 337.890084 585.895604 359.987617 584.789954 336.994238 583.684304 357.001464 582.578654 335.799776 580.920179 354.313926 579.675624 327.662132 607.316879 327.662132"></polygon>
        </g>
    </g>
</svg>